{
    "asset" : {
        "generator" : "Khronos glTF Blender I/O v1.0.5",
        "version" : "2.0"
    },
    "scene" : 0,
    "scenes" : [
        {
            "name" : "Scene",
            "nodes" : [
                0,
                1,
                2,
                3,
                4
            ]
        }
    ],
    "nodes" : [
        {
            "name" : "Light",
            "rotation" : [
                0.16907575726509094,
                0.7558803558349609,
                -0.27217137813568115,
                0.570947527885437
            ],
            "translation" : [
                4.076245307922363,
                5.903861999511719,
                -1.0054539442062378
            ]
        },
        {
            "name" : "Camera",
            "rotation" : [
                0.5434088110923767,
                -0.0547528937458992,
                0.027480944991111755,
                0.8372297883033752
            ],
            "translation" : [
                -0.5590665340423584,
                5.475543022155762,
                11.237462997436523
            ]
        },
        {
            "mesh" : 0,
            "name" : "Plane",
            "scale" : [
                6.358643531799316,
                6.358643531799316,
                6.358643531799316
            ]
        },
        {
            "mesh" : 1,
            "name" : "Suzanne",
            "rotation" : [
                -0.284270316362381,
                -0.1533677726984024,
                -0.04612201452255249,
                0.945273220539093
            ],
            "translation" : [
                3.4377970695495605,
                1.4840422868728638,
                1.0430654287338257
            ]
        },
        {
            "mesh" : 2,
            "name" : "Suzanne.001",
            "rotation" : [
                -0.2759581208229065,
                0.2738851010799408,
                0.0823649913072586,
                0.9176328778266907
            ],
            "translation" : [
                -2.344149589538574,
                1.4840422868728638,
                1.0430654287338257
            ]
        }
    ],
    "meshes" : [
        {
            "name" : "Plane",
            "primitives" : [
                {
                    "attributes" : {
                        "POSITION" : 0,
                        "NORMAL" : 1,
                        "TEXCOORD_0" : 2
                    },
                    "indices" : 3
                }
            ]
        },
        {
            "name" : "Suzanne",
            "primitives" : [
                {
                    "attributes" : {
                        "POSITION" : 4,
                        "NORMAL" : 5,
                        "TEXCOORD_0" : 6
                    },
                    "indices" : 7
                }
            ]
        },
        {
            "name" : "Suzanne.001",
            "primitives" : [
                {
                    "attributes" : {
                        "POSITION" : 8,
                        "NORMAL" : 9,
                        "TEXCOORD_0" : 10
                    },
                    "indices" : 11
                }
            ]
        }
    ],
    "accessors" : [
        {
            "bufferView" : 0,
            "componentType" : 5126,
            "count" : 4,
            "max" : [
                1,
                0,
                1
            ],
            "min" : [
                -1,
                0,
                -1
            ],
            "type" : "VEC3"
        },
        {
            "bufferView" : 1,
            "componentType" : 5126,
            "count" : 4,
            "type" : "VEC3"
        },
        {
            "bufferView" : 2,
            "componentType" : 5126,
            "count" : 4,
            "type" : "VEC2"
        },
        {
            "bufferView" : 3,
            "componentType" : 5123,
            "count" : 6,
            "type" : "SCALAR"
        },
        {
            "bufferView" : 4,
            "componentType" : 5126,
            "count" : 1968,
            "max" : [
                1.3671875,
                0.984375,
                0.8515625
            ],
            "min" : [
                -1.3671875,
                -0.984375,
                -0.8515625
            ],
            "type" : "VEC3"
        },
        {
            "bufferView" : 5,
            "componentType" : 5126,
            "count" : 1968,
            "type" : "VEC3"
        },
        {
            "bufferView" : 6,
            "componentType" : 5126,
            "count" : 1968,
            "type" : "VEC2"
        },
        {
            "bufferView" : 7,
            "componentType" : 5123,
            "count" : 2904,
            "type" : "SCALAR"
        },
        {
            "bufferView" : 8,
            "componentType" : 5126,
            "count" : 556,
            "max" : [
                1.3671875,
                0.984375,
                0.8515625
            ],
            "min" : [
                -1.3671875,
                -0.984375,
                -0.8515625
            ],
            "type" : "VEC3"
        },
        {
            "bufferView" : 9,
            "componentType" : 5126,
            "count" : 556,
            "type" : "VEC3"
        },
        {
            "bufferView" : 10,
            "componentType" : 5126,
            "count" : 556,
            "type" : "VEC2"
        },
        {
            "bufferView" : 11,
            "componentType" : 5123,
            "count" : 2904,
            "type" : "SCALAR"
        }
    ],
    "bufferViews" : [
        {
            "buffer" : 0,
            "byteLength" : 48,
            "byteOffset" : 0
        },
        {
            "buffer" : 0,
            "byteLength" : 48,
            "byteOffset" : 48
        },
        {
            "buffer" : 0,
            "byteLength" : 32,
            "byteOffset" : 96
        },
        {
            "buffer" : 0,
            "byteLength" : 12,
            "byteOffset" : 128
        },
        {
            "buffer" : 0,
            "byteLength" : 23616,
            "byteOffset" : 140
        },
        {
            "buffer" : 0,
            "byteLength" : 23616,
            "byteOffset" : 23756
        },
        {
            "buffer" : 0,
            "byteLength" : 15744,
            "byteOffset" : 47372
        },
        {
            "buffer" : 0,
            "byteLength" : 5808,
            "byteOffset" : 63116
        },
        {
            "buffer" : 0,
            "byteLength" : 6672,
            "byteOffset" : 68924
        },
        {
            "buffer" : 0,
            "byteLength" : 6672,
            "byteOffset" : 75596
        },
        {
            "buffer" : 0,
            "byteLength" : 4448,
            "byteOffset" : 82268
        },
        {
            "buffer" : 0,
            "byteLength" : 5808,
            "byteOffset" : 86716
        }
    ],
    "buffers" : [
        {
            "byteLength" : 92524,
            "uri" : "data:application/octet-stream;base64,"
        }
    ]
}
